<svg xmlns="http://www.w3.org/2000/svg" width="31" height="42" fill="none" viewBox="0 0 31 42"><g clip-path="url(#a)"><path fill="#fff" d="M0 3.853v.791l15.543-2.629L31.09 4.648v-.795L15.543.99 0 3.853Z"/><path fill="#E62C2D" d="M31.09 4.657 15.543 2.01 0 4.657l.038 2.595S7.85 3.865 15.543 3.865c7.693 0 15.509 3.387 15.509 3.387l.038-2.595Z"/><path fill="#010101" d="M15.543 3.76C5.833 3.76.04 7.196.04 7.196l.119 7.76c0 3.573 1.17 18.77 15.385 27.043 14.241-8.272 15.39-23.466 15.39-27.043l.128-7.76s-5.8-3.438-15.518-3.438Z"/><path fill="#F8E936" d="M30.469 7.734S25.414 4.53 15.543 4.53.62 7.734.62 7.734l.158 7.223c0 2.828.544 17.988 14.764 26.213 14.24-8.225 14.768-23.39 14.768-26.213l.158-7.223Z"/><path fill="#1D1D1B" d="M15.194 5.728c-.009.09-.027.18-.055.267-.038.089-.136.152-.128.211a.275.275 0 0 0 .166.182.946.946 0 0 0 .239.115c.089.02.208.089.242 0 .034-.09 0-.174-.077-.267a4.115 4.115 0 0 1-.289-.423c-.03-.047-.055-.098-.098-.106v.021Z"/><path fill="#010101" d="M14.466 22.92c0-.026.239.118.358.19.205.12.401.255.587.403.179.135.264.203.425.355.162.153.337.343.396.305.06-.038-.14-.394-.336-.555a6.507 6.507 0 0 0-.545-.385c-.195-.127-.212-.16-.51-.355a4.936 4.936 0 0 1-.587-.475l-.307-.24-.485-.424-.532-.491-.425-.449s-.315-.381-.362-.457c-.046-.076-.2-.31-.323-.508a6.99 6.99 0 0 0-.34-.487c-.115-.136-.375-.08-.681-.258a1.107 1.107 0 0 1-.455-.424.244.244 0 0 0-.072-.08l-.192-.136-.11-.072a1.022 1.022 0 0 0-.188-.114 5.628 5.628 0 0 1-.345-.182l-.425-.267-.222-.177c-.055-.043-.157-.102-.157-.102a.427.427 0 0 0-.085-.034h-.11a.167.167 0 0 0-.162.076c-.085.098-.064.047.072.589.051.216.047.973.102 1.202.079.252.181.496.306.728.019.068.03.137.034.208a1.336 1.336 0 0 0 0 .22c.064.39.643.135.766.669.07.353.046.718-.072 1.058 0 0-.123.262-.298.305-.174.042-.447-.343-.642-.652a5.166 5.166 0 0 1-.4-.847 1.098 1.098 0 0 0-.136-.245c-.09-.14-.158-.115-.256-.33-.098-.216 0-.305-.055-.496-.021-.106-.047-.114-.08-.267-.035-.152-.073-.622-.073-.622l-.064-.444s-.021-.204-.047-.33a7.166 7.166 0 0 1-.132-.869v-.359a.728.728 0 0 1 0-.178.654.654 0 0 1 .064-.161l.106-.186c0-.038.2-.25.2-.25a1.92 1.92 0 0 1 .251-.174.555.555 0 0 1 .298-.088c.107.002.214.012.32.03.28.033.85.185.995.22.148.036.29.09.426.16.314.174.425.098.161-.097a4.69 4.69 0 0 1-.336-.284 3.802 3.802 0 0 1-.293-.275c-.086-.097-.332-.461-.332-.461l-.154-.225s-.085-.093-.097-.101a.388.388 0 0 1-.056-.039.995.995 0 0 1-.208 0c-.107 0-.153.127-.153.127a4.205 4.205 0 0 1-.464.686c-.285.287-.55.59-.796.91-.191.314-.149.657-.25.813a.89.89 0 0 0-.12.187c-.098.245.255.38.174.651-.127.424-1.144.847-1.276.788-.132-.06-.026-.656 0-.847.052-.167.12-.329.204-.482a.422.422 0 0 0 .06-.136v-.254c.007-.06.018-.12.034-.178.026-.075.057-.149.093-.22.09-.195.426-.647.66-1.08.153-.283.221-.452.374-.732.154-.28.392-.656.392-.656s.106-.203.153-.28l.251-.363c.067-.134.151-.258.251-.369a.741.741 0 0 1 .315-.194.855.855 0 0 1 .557.025c.191.053.367.149.515.28.09.076.172.16.247.25l.068.1.043.026.136.085.302.199.817.495c.038.025.166.131.191.14.026.008.217-.2.596-.457.23-.149.481-.263.745-.34.119-.065.225-.15.314-.253.13-.158.25-.322.362-.491.11-.138.235-.261.374-.369l.37-.423a3.76 3.76 0 0 0 .498-.677l.188-.377s.272-.584.361-.817c.043-.098.072-.203.085-.31a.257.257 0 0 0-.05-.177c-.069-.118-.141-.063-.269-.038-.22.03-.443.011-.655-.055-.234-.038-.353-.106-.587-.144a1.846 1.846 0 0 0-.609-.055.829.829 0 0 0-.14.03 1.063 1.063 0 0 0-.268.11.64.64 0 0 1-.32.072.483.483 0 0 1-.22-.026.371.371 0 0 1-.196-.148.08.08 0 0 1 0-.063.11.11 0 0 1 .055-.047l.11-.025.163-.047s.161-.046.225-.068a.896.896 0 0 0 .132-.059s.042-.06.025-.097c-.017-.038-.106-.043-.106-.043l-.132.047-.208.063-.268.064c-.094.02-.19.035-.285.042h-.052s-.06-.038-.068-.076l-.02-.106a.844.844 0 0 1-.022-.385.92.92 0 0 1 .123-.27l.094-.153.174-.259a.65.65 0 0 1 .175-.13.721.721 0 0 1 .319-.098c.117-.01.234-.029.349-.055a1.51 1.51 0 0 0 .336-.123s.464-.17.749-.309c.285-.14.425-.3.74-.423.11-.044.225-.08.34-.106a.072.072 0 0 0 .03-.043c0-.05-.063-.072-.115-.067-.05.004-.149.055-.174 0-.026-.055.098-.064.098-.064s.055-.025.055-.055-.08 0-.115-.021a1.657 1.657 0 0 1-.323-.085 1.647 1.647 0 0 0-.366-.093c-.118 0-.235.015-.349.047-.085.021-.085-.064-.051-.076a.713.713 0 0 1 .425-.127.855.855 0 0 1 .234.02.457.457 0 0 0 .247-.05c.047-.047-.153-.042-.247-.08-.093-.039-.216-.043-.212-.102.004-.06.068-.025.11-.034a.904.904 0 0 1 .15-.021c.09-.018.18-.031.272-.038.126-.001.252.016.374.05l.349.157c.08.036.165.063.251.08a.47.47 0 0 0 .29-.054c.123-.077.055-.127 0-.195a.316.316 0 0 1 0-.343c.072-.16.106-.343.127-.36.021-.017.123.123.187.182.317.201.593.458.817.758.021.038.128 0 .46.03.263.094.49.267.65.495a.239.239 0 0 0 .175.08h.732a.975.975 0 0 1 .425 0c.107.038.456.271.298.36-.157.09-.217-.072-.319-.08-.1 0-.198.022-.29.063-.22.055-.701.2-.527.258h.124c.115.028.229.062.34.102.16.074.315.161.46.263.079.059.164.108.255.148.09.006.181.006.272 0 .117.02.23.056.336.11.153.09.295.197.426.317.08.06.153.068.212.148.06.08.03.03.034.051.005.021-.123.03-.2 0a.636.636 0 0 1-.195-.093 1.28 1.28 0 0 0-.298-.135.899.899 0 0 0-.238 0h-.23a1.574 1.574 0 0 1-.396-.043c-.17-.034-.25-.101-.425-.135s-.532-.203-.498-.042c0 .08.196.143.196.143s.123.068.238.119c.07.029.132.072.183.127l.08.064s.086.114.192.24c.08.079.186.123.298.124a1.909 1.909 0 0 1 .86.25c.111.075.214.163.306.262.11.131.047.199.034.212-.013.012 0 0-.026 0-.025 0-.153-.166-.153-.166l-.098-.08a1.013 1.013 0 0 0-.22-.11c-.124-.038-.167 0-.167 0-.16.045-.327.067-.493.068a.683.683 0 0 1-.354-.098l-.148.013s-.218-.203-.226-.106c-.009.098.098.136.098.136l.115.118c.09.085.123.127.225.216a.29.29 0 0 0 .166.093h.132l.192.076c.117.054.227.122.327.204a.109.109 0 0 0 .043 0 .358.358 0 0 1 .08.03h.145c.094 0 .06.067.06.067v.025l-.073.051c-.054.014-.11.024-.165.03a.463.463 0 0 1-.162-.034l-.209-.076s-.204-.055-.246-.06l-.256-.008a.992.992 0 0 1-.149-.055c-.025 0-.072-.026-.183-.076a1.597 1.597 0 0 0-.293-.161.32.32 0 0 0-.328 0c-.178.123.273.144.494.254.332.16.515.284.595.457.035.09.088.17.158.237.125.063.24.144.34.242.056.063.064.118.12.186.127.148.374.14.425.267.05.127-.2.063-.332.05-.23 0-.285-.233-.502-.317-.123-.047-.2-.051-.323-.09-.23-.075-.337-.173-.562-.245-.136-.042-.387-.22-.358-.084a.242.242 0 0 0 .035.08l.068.097s.08.098.11.127c.125.092.256.176.392.25.148.089.28.202.391.335.034.047.066.097.094.148.03.072 0 .093.055.19.03.068.075.127.132.174.153.148.315.118.51.199.052 0 .056.03.115.089a.05.05 0 0 1 0 .089c-.116.03-.236.044-.357.042a1.076 1.076 0 0 1-.425-.157 1.004 1.004 0 0 1-.294-.254s-.06-.059-.094-.084a1.411 1.411 0 0 0-.2-.064c-.076-.021-.123-.021-.2-.046-.076-.026-.22-.077-.272-.093a.33.33 0 0 0-.251 0c-.17.101.264.169.4.309.068.071.094.122.162.198.035.055.08.104.132.144a.706.706 0 0 0 .114.064s.107.046.256.131c.127.088.238.195.332.318l.11.165.064.093v.097a.643.643 0 0 0 .136.136c.055.034.047.063.047.063a.122.122 0 0 1-.047.047c-.042.021-.06 0-.119 0a.484.484 0 0 1-.145-.11c-.05-.038-.106-.14-.2-.2a1.28 1.28 0 0 0-.23-.08c-.038 0-.14-.076-.178-.093l-.17-.05a1.877 1.877 0 0 0-.31-.145c-.116-.03-.043.039-.043.039a.98.98 0 0 0 .195.215c.128.085.302.157.243.225-.06.068-.09.025-.149.021a.511.511 0 0 1-.204-.123 1.435 1.435 0 0 0-.256-.097c-.208-.068-.132.046-.085.106.031.037.069.069.111.093l.14.063.064.022.247.055a.683.683 0 0 1 .294.135c.077.069.158.134.242.195a.806.806 0 0 0 .362.144c.076 0 .076.063.076.063a.285.285 0 0 1 0 .068.038.038 0 0 1-.034.03.081.081 0 0 0-.046 0h-.103a1.917 1.917 0 0 1-.374-.047.95.95 0 0 1-.323-.16s-.17-.09-.277-.124a.674.674 0 0 0-.285 0l-.17.043c-.102.025 0 .063 0 .063h.238c.11.012.219.036.323.072.132.06.248.148.34.258.063.061.131.115.205.161l.077.051.042.03v.059a.09.09 0 0 1-.03.03h-.055a1.842 1.842 0 0 1-.208-.094 1.02 1.02 0 0 0-.222-.093.679.679 0 0 0-.204 0c-.021 0-.196.03-.328.043-.134.012-.27.012-.404 0-.221-.026-.515-.204-.553-.153-.038.051.158.132.272.195.136.072.279.13.426.174.116.024.23.06.34.105.251.115.328.288.532.475.096.092.22.15.353.165.132.02.128 0 .336-.034.209-.034.332-.237.392-.165.06.072 0 .025 0 .046a.211.211 0 0 1 0 .055.751.751 0 0 1-.064.072c-.077.06-.161.108-.251.144a1.28 1.28 0 0 1-.49.09 1.54 1.54 0 0 1-.548-.179l-.234-.097-.179-.08a4.13 4.13 0 0 0-.515-.115c-.119-.034-.2-.068-.31-.093-.11-.025-.051 0-.039.038a.48.48 0 0 0 .209.136c.119.055.2.042.319.093.114.05.224.11.328.178.073.048.139.106.195.173l.247.208s.06.046.064.067a.257.257 0 0 1 0 .153c0 .08-.08 0-.08 0l-.065-.038-.063-.06-.107-.084a1.032 1.032 0 0 0-.57-.259s-.162 0-.158.03c.005.03.043.05.17.085a.622.622 0 0 1 .213.097c.083.062.16.132.23.208.055.06.096.133.12.211a.984.984 0 0 0 .17.203c.119.119.183.077.178.136a.085.085 0 0 1-.064.068h-.042a.523.523 0 0 1-.077-.03 1.6 1.6 0 0 1-.161-.102l-.222-.177-.212-.157s-.115-.072-.196-.114a1.967 1.967 0 0 0-.247-.098.897.897 0 0 0-.174-.03 1.036 1.036 0 0 1-.213-.05 1.321 1.321 0 0 1-.298-.19.646.646 0 0 0-.162-.043 1.08 1.08 0 0 0-.089.356c-.036.489.073.978.315 1.405.333.6.75 1.148 1.238 1.63.112.063.22.132.323.207.395.277.77.58 1.124.906.281.299.545.612.791.94.143.198.271.406.383.623.11.258.2.524.268.795a.718.718 0 0 0 0 .102.076.076 0 0 0 .051.038h.158c.105-.008.21-.023.315-.046.202-.069.398-.154.587-.254.15-.083.291-.178.425-.284 0 0 .038-.034.26-.275.184-.22.328-.471.425-.741.077-.276.12-.56.128-.847a5.054 5.054 0 0 0-.03-.918s-.08-.66-.128-.881a7.14 7.14 0 0 0-.17-.588s-.085-.326-.11-.53a6.303 6.303 0 0 1-.03-.541c.007-.195.03-.39.068-.58.057-.266.157-.521.298-.754.09-.15.196-.293.315-.423.164-.21.364-.391.591-.534.2-.144.46-.372.545-.321.085.05-.094.177-.154.237-.27.248-.503.533-.693.846a2.79 2.79 0 0 0-.336.847c-.035.19-.043.384-.021.576 0 .089.055.055.055.055.278-.219.541-.457.787-.712.298-.33.562-.918.668-.922.106-.005.102.152.085.224-.033.19-.096.375-.187.546a3.205 3.205 0 0 1-.379.555 2.377 2.377 0 0 0-.383.61 1.088 1.088 0 0 0-.08.757s0 .203.114.199c.115-.004.485-.423.702-.766.162-.254.221-.546.328-.699.106-.152.179.22.14.424a2.02 2.02 0 0 1-.425.846 1.14 1.14 0 0 0-.26.67 4.266 4.266 0 0 0-.05.478c-.004.274.02.547.072.817.048.239.082.48.102.724a3.334 3.334 0 0 1-.29 1.583c-.109.186-.233.363-.37.529-.11.113-.227.218-.353.313-.173.112-.353.211-.54.297l-.298.101a.132.132 0 0 0-.064.038l.034.072.085.204c.04.146.072.294.094.444a.866.866 0 0 1-.039.402c-.025.148-.093.08-.106.373-.013.292.102.39.08.677 0 .127-.157-.157-.225-.28a1.686 1.686 0 0 1-.114-.77 1.556 1.556 0 0 0-.047-.343 1.178 1.178 0 0 0-.196-.393c-.077-.098-.157-.157-.187-.149-.03.009-.026.064-.03.093a.53.53 0 0 0 .068.14l.11.2c.037.138.056.28.06.423.005.199-.017.398-.064.592a3.828 3.828 0 0 1-.23.563 3.859 3.859 0 0 1-.39.589c-.144.138-.262.3-.35.478-.149.296 0 .424-.072.462-.072.038-.179-.17-.209-.314a.506.506 0 0 1 .039-.338c.048-.12.105-.236.17-.348l.179-.304c.119-.224.215-.46.285-.703.039-.207.039-.42 0-.627 0 0 0-.105-.085-.101-.085.004-.128.067-.158.148-.064.16.026.131-.068.402-.093.271-.098.186-.136.313-.04.138-.063.28-.068.424 0 .093-.047.055-.047.055a.902.902 0 0 1-.09-.381 2.128 2.128 0 0 1 0-.288c.023-.157.055-.312.094-.466a1.75 1.75 0 0 0 .056-.567c0-.254-.107-.3-.107-.3s0-.035-.119-.03c-.119.004-.093.182-.093.182a2.687 2.687 0 0 1-.579 1.44c-.204.274-.44.524-.702.744-.158.136-.638.487-.638.487l-.562.373a1.559 1.559 0 0 0-.328.474 1.045 1.045 0 0 0-.038.698c.033.153.098.297.192.424.075.093.13.201.161.317.007.073.007.147 0 .22.004.064.004.127 0 .19a.467.467 0 0 1-.047.306.586.586 0 0 1-.187.135 2.612 2.612 0 0 0-.242.123 6.067 6.067 0 0 0-1.817 1.566c-.17.203-.047.195-.23.424-.11.143-.366.143-.46.317-.131.237.29.47-.195.677a2.69 2.69 0 0 1-1.723 0c-.06-.233.208-.5.306-.6.425-.48.851-.492.97-.886.034-.084.021-.156.37-.423a12.968 12.968 0 0 0 1.651-1.405c.143-.128.257-.284.336-.458a.282.282 0 0 0-.064-.3l-.174-.284-.323-.563s-.14-.317-.217-.5a10.6 10.6 0 0 1-.226-.681 5.05 5.05 0 0 1-.127-.732 3.514 3.514 0 0 1 .174-1.326c.179-.656.583-.93.745-1.578.046-.191.06-.513-.039-.496-.098.017-.098.271-.166.424-.264.656-.608.922-.795 1.591a3.606 3.606 0 0 0-.175 1.186c-.009.228.011.457.06.681a2.5 2.5 0 0 0 .119.424c.034.118.132.338.132.338.075.163.136.331.183.504.017.06.026.12.025.182 0 .123 0 .148-.047.258-.046.11-.03.22-.263.271a1.747 1.747 0 0 1-.643-.093s-1.77-.533-2.897-.38a3.367 3.367 0 0 1-.57.105c-.205 0-.311-.16-.511-.102-.043 0-.055.043-.094.068-.302.207-.072.555-.85.373-.494-.093-1.09-.394-.975-.58.115-.187.315-.288.698-.424.371-.106.758-.149 1.144-.127.205-.052.412-.092.621-.118a1.25 1.25 0 0 1 .54.046l.775.068h1.481s.268 0 .374-.038c.107-.038.192-.229.247-.326a.341.341 0 0 0 0-.246l-.038-.072-.14-.228-.26-.423-.298-.589s-.191-.398-.293-.665a5.283 5.283 0 0 1-.226-.677 3.636 3.636 0 0 1-.12-.728 2.22 2.22 0 0 1 .06-.847v.013Z"/><path fill="#fff" d="M24.095 22.39c.262-.37.39-.817.362-1.27a4.525 4.525 0 0 0-.132-.965l-.021-.042s-.056-.068-.09 0c-.034.068 0 .152 0 .152v.75c-.023.262-.075.52-.157.77-.217.66-.796.957-.881 1.19-.145.398.506-.106.88-.584h.039ZM20.823 23.606a.187.187 0 0 0-.132.165c0 .123.03.233.03.385s-.183.423-.068.487c.196.123.366-.754.306-.88-.06-.128-.119-.157-.136-.157ZM18.62 29.672h-.107a.102.102 0 0 0-.068.098s0 .076.042.089c.043.012.154-.132.154-.149a.118.118 0 0 0-.022-.046v.008ZM16.547 31.137v.034c0 .034.043 0 .043 0s.357-.275.57-.474c.212-.2.549-.567.549-.567a.038.038 0 0 0 0-.051c-.026-.026-.09 0-.137.034a.782.782 0 0 0-.106.076l-.136.135-.277.271-.174.161-.17.16-.069.081-.046.034-.026.034v.03l-.021.042ZM15.93 31.54a.102.102 0 0 0-.102 0 .54.54 0 0 0-.132.122s-.038.055 0 .097c.039.043.098 0 .11 0a1.23 1.23 0 0 0 .112-.08.093.093 0 0 0 .025-.119l-.013-.02ZM14.743 32.733s-.047-.093-.115-.055a.399.399 0 0 0-.166.135s-.076.102-.085.123c-.008.021-.076.144.055.153.226 0 .077-.136.158-.191.08-.055.183-.034.183-.076a.144.144 0 0 0-.03-.09ZM10.688 27.966s-.14.034-.148.08c-.009.047.08.098.093.102.013.004.047.034.14-.025.094-.06.086-.114.086-.114s.055-.06-.17-.043ZM12.918 27.894s0-.05-.098-.042-.12 0-.124.038c-.004.038 0 .038.094.046.094.009.128 0 .128-.042ZM15.028 27.94a1.117 1.117 0 0 0-.23 0 3.93 3.93 0 0 1-.502 0c-.276 0-.698-.084-.698-.084h-.076c-.021 0 .05.106.115.127.192.075.398.107.604.093.132 0 .204 0 .336-.021.143.01.286-.002.425-.034.047 0 .094-.097.026-.097v.017ZM16.215 27.602s-.034-.038-.106 0a.353.353 0 0 0-.12.119s-.033.05.04.042a.387.387 0 0 0 .152-.05s.073-.06.034-.107v-.004ZM15.182 13.411a5.45 5.45 0 0 0 .85-1.088c.213-.368.307-1.227.124-1.011-.085.097-.183.542-.345.872a9.585 9.585 0 0 1-.706 1.134s-.106.22.064.093h.013ZM13.19 14.597a.097.097 0 0 0-.03.11c.026.068.128 0 .128 0 .152-.055.31-.088.472-.097.196-.001.392.02.583.063 0 0 .162.042.187.055l.132.055s.094.047.145 0c.05-.046-.294-.347-.643-.393a1.478 1.478 0 0 0-.957.169l-.017.038ZM10.794 16.625c.043.034.234-.33.396-.563.12-.17.336-.453.336-.453s.094-.132-.068-.06a.997.997 0 0 0-.383.424c-.106.22-.323.618-.28.652ZM9.458 15.033s-.042.14.128.318c.17.177.208.325.315.22.03-.03-.102-.271-.17-.335a1.68 1.68 0 0 1-.12-.123l-.042-.034-.06-.03h-.03a.02.02 0 0 0-.01-.002.02.02 0 0 0-.01.003v-.017ZM8.935 13.674s-.178.034-.225.123c-.047.089.208.034.208.034s.166 0 .17-.055c.005-.055-.02-.072-.153-.102ZM6.046 18.411c-.094-.03-.106.153-.12.212-.012.06.04.173.06.173a.304.304 0 0 0 .103-.169c0-.06.038-.19-.043-.216ZM9.029 21.938s-.166-.131-.192-.076c-.025.055.136.279.136.279a.106.106 0 0 0 .128.038.102.102 0 0 0 .047-.118s-.051-.106-.12-.123ZM7.782 18.123a.043.043 0 0 0-.05.02 1.926 1.926 0 0 0-.03.251c-.008.095-.008.19 0 .284.006.089.022.177.046.262.036.09.08.177.132.259 0 0 .034.08.08.076.048-.004.035-.055.035-.055s-.14-.546-.145-.601V18.204s0-.06-.072-.06l.004-.02ZM7.999 16.46s-.077 0-.145.13c-.068.132-.055.204-.05.213.003.008.063 0 .152-.132.09-.13.068-.186.068-.186s0-.03-.025-.025ZM10.093 17.967s.093.135-.085.106a4.26 4.26 0 0 1-.698-.403c-.15-.076-.392-.101-.29-.194 0 0 .022-.03.052-.03.048.007.096.02.14.042 0 0 .264.11.276.11.013 0 .154.068.26.128.106.059.272.181.272.181l.073.06ZM14.969 22.145c.046.152-.553-.317-.877-.567-.85-.656-1.906-1.998-1.774-2.117.132-.118.536.517 1.166 1.194.63.677 1.46 1.401 1.485 1.49ZM17.487 21.502a.563.563 0 0 0-.144.643c.106.182.14-.27.255-.423.115-.153.162-.098.328-.216.285-.2-.2-.275-.426-.021l-.013.017ZM16.415 17.256c-.127 0-.123.173-.106.313.09.573.346 1.109.736 1.54.226.272.851.759.92.682a9.005 9.005 0 0 1-.984-1.113 2.61 2.61 0 0 1-.46-1.156c0-.042 0-.25-.106-.266ZM14.015 8.107a4.493 4.493 0 0 1-.766.284s-.02.05.039.046c.274-.009.544-.07.795-.182a1.04 1.04 0 0 0 .383-.36s.09-.165-.076-.03a2.75 2.75 0 0 1-.375.242ZM17.386 7.049a.248.248 0 0 0-.158 0c-.064.042-.043.072-.043.072.05.039.106.07.166.089.073 0 .226.076.217.025a.452.452 0 0 0-.119-.17.175.175 0 0 0-.064-.033v.017ZM15.803 9.949a.91.91 0 0 0 .425-.106c.09-.047.12-.208.12-.208s.025-.156 0-.097c-.162.263-.528.377-.511.423l-.034-.012ZM15.79 9.225c.115-.22-.315.224-.532.338-.132.072-.349.165-.349.165s-.06.072.022.064c.08-.009.285.063.425-.064.077-.088.148-.181.213-.279.077-.065.144-.14.2-.224h.021ZM15.743 10.16c.201.036.407.036.608 0 .094-.03.145-.194.145-.194s.06-.149 0-.098c-.217.22-.77.267-.761.3l.008-.008ZM8.007 14.534s-.072-.026-.161.105c-.09.132-.498.745-.426.847.072.102.426-.546.545-.669a.262.262 0 0 0 .064-.245s0-.03-.022-.03v-.008ZM16.815 25.557c-.034.234-.006.471.081.69.17.204.068-.321.09-.508.012-.148.056-.292.127-.423.153-.33-.204-.212-.298.224v.017ZM15.343 7.891a.547.547 0 0 0-.238.06.263.263 0 0 0-.132.135.177.177 0 0 0 0 .093c.03.068.174-.038.277 0a.379.379 0 0 1 .182.127c.056.068.15.16.209.106.06-.055.038-.182.038-.182a.677.677 0 0 0-.161-.28.307.307 0 0 0-.166-.055l-.009-.004ZM13.126 9.41s-.072 0-.055.103c.017.101.064.072.064.072s.153-.064.144-.157c-.008-.093-.153 0-.153 0V9.41ZM12.046 8.928a.18.18 0 0 0-.14.102 1.436 1.436 0 0 0-.09.203s-.026.131.021.174c.047.042.098-.09.166-.136l.11-.072c.06-.038.154 0 .146-.105a.195.195 0 0 0-.213-.166ZM15.539 7.675s-.183-.025-.18.043c.005.067.103.025.163.055a.426.426 0 0 1 .144.076c.034.034.03.093.073.093.042 0 .046-.021.046-.021s-.05-.161-.123-.203a.209.209 0 0 0-.123-.043ZM17.594 8.412a.766.766 0 0 1-.043.135s-.05.203.153.127a1.25 1.25 0 0 0 .247-.114c.145-.072.14-.034.251-.03a.338.338 0 0 0 .11 0c.048 0 .03-.067-.076-.093a1.924 1.924 0 0 0-.425-.025c-.094 0-.213-.093-.239 0h.022ZM17.683 7.663a.23.23 0 0 0-.157 0c-.064.038-.047.071-.047.071a.46.46 0 0 0 .17.085c.068 0 .221.076.217.026a.462.462 0 0 0-.123-.17.145.145 0 0 0-.06-.034v.022ZM18.045 9.068a.308.308 0 0 0-.17 0c-.068.038-.047.068-.047.068a.545.545 0 0 0 .179.08c.076 0 .238.072.234.026a.424.424 0 0 0-.128-.161.213.213 0 0 0-.068-.034v.021ZM18.075 9.58a.265.265 0 0 0-.179.022c-.072.042-.05.076-.05.076a.511.511 0 0 0 .19.093c.081 0 .252.085.243.03-.008-.056-.102-.157-.136-.187a.18.18 0 0 0-.068-.034ZM18.126 10.075a.299.299 0 0 0-.196.026c-.076.046-.055.085-.055.085.062.049.133.086.208.11.085 0 .273.093.264.03a.505.505 0 0 0-.149-.208.162.162 0 0 0-.072-.043ZM18.113 10.69a.299.299 0 0 0-.196.025c-.077.046-.055.089-.055.089a.632.632 0 0 0 .208.106c.085 0 .272.093.264.03a.568.568 0 0 0-.145-.208.293.293 0 0 0-.076-.042ZM18.028 11.887a.299.299 0 0 0-.196.026c-.076.046-.055.089-.055.089a.63.63 0 0 0 .209.106c.085 0 .272.093.263.03a.568.568 0 0 0-.144-.208.29.29 0 0 0-.077-.043ZM18.109 11.29a.355.355 0 0 0-.226.026c-.093.055-.064.101-.064.101.07.057.152.099.239.123.098 0 .315.11.306.038a.636.636 0 0 0-.17-.24.2.2 0 0 0-.085-.047ZM17.972 12.43a.244.244 0 0 0-.161.02c-.064.039-.047.073-.047.073a.57.57 0 0 0 .17.088c.072 0 .226.077.221.026a.425.425 0 0 0-.123-.174.178.178 0 0 0-.06-.033ZM17.87 12.95a.218.218 0 0 0-.136 0c-.051.034-.034.06-.034.06.041.033.09.057.14.071.06 0 .183.064.18 0-.005-.063-.077-.118-.099-.14a.174.174 0 0 0-.05-.029v.038ZM17.768 13.424a.183.183 0 0 0-.119 0c-.046.03-.034.055-.034.055a.4.4 0 0 0 .128.068c.055 0 .17.055.162 0a.314.314 0 0 0-.09-.127.094.094 0 0 0-.047-.025v.03ZM17.657 13.81a.197.197 0 0 0-.119 0c-.05.029-.034.054-.034.054.037.029.079.05.124.064.055 0 .17.06.166.021a.327.327 0 0 0-.094-.131l-.043-.025v.016ZM17.521 14.262a.15.15 0 0 0-.097 0c-.039.022-.026.043-.026.043a.27.27 0 0 0 .102.05c.043 0 .136.047.132 0a.259.259 0 0 0-.072-.1.112.112 0 0 0-.039-.022v.03ZM17.36 14.681a.14.14 0 0 0-.085 0c-.034 0-.026.039-.026.039.027.019.057.033.09.042.038 0 .119.042.114 0a.241.241 0 0 0-.064-.093.07.07 0 0 0-.03 0v.012ZM17.19 15.084a.116.116 0 0 0-.082 0c-.034.02-.025.038-.025.038a.232.232 0 0 0 .09.046c.038 0 .114.043.114 0a.28.28 0 0 0-.064-.088.108.108 0 0 0-.034 0v.004ZM6.305 17.12s-.085.16-.042.25c.042.089.153-.14.153-.14s.12-.229.068-.27c-.05-.043-.076.075-.179.16Z"/><path fill="#010101" d="M12.688 31.374s-.064-.08-.123 0a.336.336 0 0 1-.277.144.677.677 0 0 1-.272-.064l-.188-.084a1.962 1.962 0 0 0-.519-.114 1.212 1.212 0 0 0-.812.296.846.846 0 0 0-.192.952c.115.21.282.386.485.513.264.16.379.22.379.22l.455.207.426.157s.604.182.68.64a.972.972 0 0 1-.615 1.039.986.986 0 0 1-.427.065 1.338 1.338 0 0 1-1.362-.63.666.666 0 0 1-.055-.475l.034-.072h.034a.427.427 0 0 0 .256.068.373.373 0 0 0 .301-.28.367.367 0 0 0 .005-.144.347.347 0 0 0-.374-.292c-.107 0-.58.132-.592.817a1.3 1.3 0 0 0 .617 1.05c.283.168.607.257.936.259a2.6 2.6 0 0 0 .915-.22 1.435 1.435 0 0 0 .787-1.173 1.167 1.167 0 0 0-.49-1.084 2.603 2.603 0 0 0-.352-.203l-.566-.271-.426-.186-.25-.136-.137-.093s-.332-.258-.153-.53c.178-.27.672-.186.672-.186.252.057.491.16.706.301.187.137.352.302.49.487l.127.212v.025l.111-.038a5.375 5.375 0 0 1-.158-.673c-.034-.195-.063-.504-.063-.504h-.013ZM17.585 34.084a.392.392 0 0 0 .255.122.35.35 0 0 0 .358-.368.358.358 0 0 0-.273-.334.546.546 0 0 0-.608.317c-.12.239-.151.511-.09.77a1.366 1.366 0 0 0 .686.885 1.58 1.58 0 0 0 1.234.085 2.29 2.29 0 0 0 .889-.618c.259-.299.465-.64.608-1.008l.145-.36h.174a.64.64 0 0 0 .426-.114c.11-.094.203-.206.277-.33l.025-.055-.136-.055a.507.507 0 0 1-.298.178 1.606 1.606 0 0 1-.357 0l.17-.424s.191-.39.247-.478c.055-.089.28-.377.28-.377.306-.006.61-.039.91-.097.247-.049.489-.117.724-.203l.553-.229.137-.072-.043-.11c-.402.13-.817.218-1.238.262a4.447 4.447 0 0 1-1.2 0l-.851-.127c-.15-.024-.3-.04-.451-.046a4.1 4.1 0 0 0-.566.03c-.204.043-.399.119-.579.224-.178.131-.608.449-.425.927.183.478 1 .224 1.11-.131l.047-.114v-.064l-.055.004-.08.098s-.299.245-.533.089a.277.277 0 0 1-.114-.32.275.275 0 0 1 .063-.104.792.792 0 0 1 .426-.245c.25-.03.503-.016.748.042l.49.089.285.05h.098l-.17.191c-.17.171-.314.367-.426.58-.174.343-.255.52-.255.52v.026a1.043 1.043 0 0 0-.358.11.85.85 0 0 0-.23.212l-.063.114.085.072a.572.572 0 0 1 .221-.144.343.343 0 0 1 .217 0s-.174.424-.26.593a3.168 3.168 0 0 1-.425.66 1.142 1.142 0 0 1-.8.462 1.014 1.014 0 0 1-.898-.368.94.94 0 0 1-.195-.521c0-.11.026-.22.076-.318l.013.022Z"/><path fill="#009B4E" d="M0 3.865v-.927L15.547 0 31.09 2.938v.927L15.543 1.008 0 3.865Z"/></g><defs><clipPath id="a"><path fill="#fff" d="M0 0h31v42H0z"/></clipPath></defs></svg>